# xmcd
#
# Track frame offsets:
#	182
#	14854
#	28101
#	40766
#	52319
#	66944
#	77969
#	90969
#	103891
#	118536
#	133030
#	145176
#	158974
#	170442
#	182316
#	195817
#	209265
#	220136
#	233448
#	246575
#	258938
#
# Disc length: 3613 seconds
#
# Revision: 1
# Processed by: cddbd v1.5.1PL0 Copyright (c) Steve Scherf et al.
# Submitted via: audiograbber 1.83.01
#
DISCID=280e1b15
DTITLE=Various Artists w/Django Reinhardt - Djangology (Intégrale vol3 - Disc2)
DYEAR=1935
DGENRE=Jazz
TTITLE0=Patrick and Son Orchestre - I Get A Kick Out Of You (1935-06-17)
TTITLE1=Patrick and Son Orchestre - You And The Night And The Music (1935-06-17)
TTITLE2=Patrick and Son Orchestre - Seagulls (1935-06-17)
TTITLE3=Patrick and Son Orchestre - Anything Goes (1935-06-17)
TTITLE4=Patrick and Son Orchestre - Easter Parade (1935-06-17)
TTITLE5=Patrick and Son Orchestre - I'm Gonna Wash My Hands Of You (1935-06-17)
TTITLE6=Django Reinhardt and Le Quintette Du Hot Club France, Avec Arthur Briggs 
TTITLE6=& Stephane Grapelly - Avalon (June 1935)
TTITLE7=Django Reinhardt and Le Quintette Du Hot Club France, Avec Arthur Briggs 
TTITLE7=& Stephane Grapelly - Smoke Rings (Janue 1935)
TTITLE8=Stephane Grapelly and Le Quintette Du Hot Club De France, Avec Django Rei
TTITLE8=nhardt - Clouds (June 1935)
TTITLE9=Stephane Grapelly and Le Quintette Du Hot Club De France, Avec Django Rei
TTITLE9=nhardt - Believe It, Beloved (June 1935)
TTITLE10=Franck "Big Boy" Goodie, Avec  Section Rythmique - I've Found A New Ba
TTITLE10=by (July 1935)
TTITLE11=Franck "Big Boy" Goodie, Avec  Section Rythmique - St Louis Blues (Jul
TTITLE11=y 1935)
TTITLE12=Alix Combelle and Le Quintette Du Hot Club De France - Crazy Rhythm (193
TTITLE12=5-08-20)
TTITLE13=Alix Combelle and Le Quintette Du Hot Club De France - The Sheik Of Arab
TTITLE13=y (1935-08-20)
TTITLE14=Django Reinhardt and Le Quintette Du Hot Club France, Avec Stephane Grap
TTITLE14=elly - Chasing Shadows (1935-09-02)
TTITLE15=Django Reinhardt and Le Quintette Du Hot Club France, Avec Stephane Grap
TTITLE15=elly - I've Had My Moments (1935-09-02)
TTITLE16=Django Reinhardt and Le Quintette Du Hot Club France, Avec Stephane Grap
TTITLE16=elly - Some Of These Days (1935-09-02)
TTITLE17=Django Reinhardt and Le Quintette Du Hot Club France, Avec Stephane Grap
TTITLE17=elly - Djangology (1935-09-02)
TTITLE18=Nane Cholet - Ainsi Soit-Il (1935-09-02)
TTITLE19=Nane Cholet - Les Quatre Farceurs (1935-09-02)
TTITLE20=Bruce Boyce, Avec Django Reinhardt @ Stephane Grapelly - Run Mary, Run
TTITLE20=/Didn't It Rain (1935-09-27)
EXTD=YEAR: 1935
EXTT0=
EXTT1=
EXTT2=
EXTT3=
EXTT4=
EXTT5=
EXTT6=
EXTT7=
EXTT8=
EXTT9=
EXTT10=
EXTT11=
EXTT12=
EXTT13=
EXTT14=
EXTT15=
EXTT16=
EXTT17=
EXTT18=
EXTT19=
EXTT20=
PLAYORDER=
